<?xml version="1.0" standalone="no"?><!DOCTYPE svg PUBLIC "-//W3C//DTD SVG 1.1//EN" "http://www.w3.org/Graphics/SVG/1.1/DTD/svg11.dtd"><svg t="1725434504176" class="icon" viewBox="0 0 1024 1024" version="1.1" xmlns="http://www.w3.org/2000/svg" p-id="21205" xmlns:xlink="http://www.w3.org/1999/xlink" width="200" height="200"><path d="M126.976 872.448c0 81.92 65.536 147.456 151.552 147.456h471.04c81.92 0 151.552-65.536 151.552-147.456V196.608c0-73.728-57.344-139.264-126.976-147.456 0 12.288 4.096 20.48 4.096 32.768 0 90.112-73.728 163.84-159.744 163.84h-196.608c-90.112 0-163.84-73.728-163.84-163.84 0-12.288 0-20.48 4.096-32.768-81.92 8.192-135.168 69.632-135.168 147.456v675.84z m389.12-471.04c53.248 0 94.208 40.96 94.208 94.208 0 53.248-40.96 94.208-94.208 94.208-53.248 0-94.208-40.96-94.208-94.208 0-49.152 40.96-94.208 94.208-94.208z m-188.416 368.64c16.384-49.152 53.248-90.112 98.304-110.592 28.672 16.384 57.344 24.576 90.112 24.576 32.768 0 61.44-8.192 86.016-20.48 45.056 20.48 77.824 61.44 94.208 106.496 12.288 32.768-12.288 65.536-45.056 65.536H372.736c-32.768 0-57.344-36.864-45.056-65.536z" p-id="21206" fill="#2c2c2c"></path><path d="M413.696 0c-45.056 0-81.92 36.864-81.92 77.824 0 45.056 36.864 81.92 81.92 81.92h196.608c45.056 0 77.824-36.864 77.824-77.824 4.096-45.056-32.768-81.92-77.824-81.92h-196.608z" p-id="21207" fill="#2c2c2c"></path></svg>