<?xml version="1.0" standalone="no"?><!DOCTYPE svg PUBLIC "-//W3C//DTD SVG 1.1//EN" "http://www.w3.org/Graphics/SVG/1.1/DTD/svg11.dtd"><svg t="1725434487901" class="icon" viewBox="0 0 1419 1024" version="1.1" xmlns="http://www.w3.org/2000/svg" p-id="20915" xmlns:xlink="http://www.w3.org/1999/xlink" width="277.1484375" height="200"><path d="M1216.468 855.853c-5.916-19.589-26.293-31.026-46.145-26.03-19.851 4.995-32.21 24.715-28.134 44.83 5.916 23.401 9.86 47.197 11.964 71.387H264.775C284.101 718.733 474.73 539.542 706.77 538.228c0.92 0 1.84 0.263 2.63 0.263 148.69 0 269.245-120.556 269.245-269.246S858.088 0 709.398 0 440.153 120.556 440.153 269.245c0 89.267 44.042 167.884 110.959 216.79-211.137 67.312-364.56 265.17-364.56 498.262 0 21.166 17.223 38.388 38.389 38.388h969.31c21.166 0 38.388-17.222 38.388-38.388-0.132-43.253-5.522-86.374-16.17-128.444z m-507.07-775c103.991 0 188.525 84.533 188.525 188.524 0 103.99-84.534 188.524-188.525 188.524-103.99 0-188.524-84.533-188.524-188.524 0.132-103.99 84.665-188.525 188.524-188.525z m228.754 756.069c-9.597 0-18.8-3.813-25.505-10.65L812.47 726.096c-14.067-14.067-14.067-37.074 0-51.141s37.074-14.067 51.14 0l74.674 74.673 240.06-240.06c14.067-14.066 37.074-14.066 51.14 0s14.068 37.075 0 51.142L963.92 826.273c-6.967 6.836-16.17 10.649-25.767 10.649z" fill="#2c2c2c" p-id="20916"></path></svg>