<?xml version="1.0" standalone="no"?><!DOCTYPE svg PUBLIC "-//W3C//DTD SVG 1.1//EN" "http://www.w3.org/Graphics/SVG/1.1/DTD/svg11.dtd"><svg t="1725434790889" class="icon" viewBox="0 0 1024 1024" version="1.1" xmlns="http://www.w3.org/2000/svg" p-id="31642" xmlns:xlink="http://www.w3.org/1999/xlink" width="200" height="200"><path d="M932.571429 54.857143H91.428571c-20.228571 0-36.571429 16.342857-36.571428 36.571428v841.142858c0 20.228571 16.342857 36.571429 36.571428 36.571428h841.142858c20.228571 0 36.571429-16.342857 36.571428-36.571428V91.428571c0-20.228571-16.342857-36.571429-36.571428-36.571428z m-36.571429 841.142857H685.6V615.085714h118.857143l17.828571-137.942857H685.6v-88.114286c0-40 11.085714-67.2 68.342857-67.2h73.028572v-123.428571c-12.685714-1.714286-56-5.485714-106.514286-5.485714-105.371429 0-177.485714 64.342857-177.485714 182.4v101.714285H423.885714v137.942858h119.2V896H128V128h768v768z" p-id="31643" fill="#2c2c2c"></path></svg>