<?xml version="1.0" standalone="no"?><!DOCTYPE svg PUBLIC "-//W3C//DTD SVG 1.1//EN" "http://www.w3.org/Graphics/SVG/1.1/DTD/svg11.dtd"><svg t="1725434336177" class="icon" viewBox="0 0 1024 1024" version="1.1" xmlns="http://www.w3.org/2000/svg" p-id="16527" width="200" height="200" xmlns:xlink="http://www.w3.org/1999/xlink"><path d="M781.8 597s0 0.2 0.2 0.2c18.4 38.8 28.8 82.2 28.8 128C810.6 890.2 677 1024 512 1024s-298.6-133.8-298.6-298.6c0-45.8 10.4-89.2 28.8-128 3.4-7.2 7.2-14.4 11.2-21.4 8.8-15.2 18.8-29.4 30-42.6 54.8-65.2 137-106.6 228.8-106.6 67.2 0 129.2 22.2 179.2 59.8 18.2 13.8 34.8 29.4 49.6 47 11.2 13.2 21.2 27.6 30 42.6 4 6.8 7.6 14 11 21z m52.8-37.6c-60.2-116.8-182-196.8-322.6-196.8s-262.4 80-322.6 196.8L0 405.4 512 0l512 405.4-189.4 154.2z" p-id="16528" fill="#2c2c2c"></path></svg>