<?xml version="1.0" standalone="no"?><!DOCTYPE svg PUBLIC "-//W3C//DTD SVG 1.1//EN" "http://www.w3.org/Graphics/SVG/1.1/DTD/svg11.dtd"><svg t="1725434547088" class="icon" viewBox="0 0 1024 1024" version="1.1" xmlns="http://www.w3.org/2000/svg" p-id="23290" xmlns:xlink="http://www.w3.org/1999/xlink" width="200" height="200"><path d="M331.9765981 853.05687969h-154.34074402V340.1079661h154.33456422v512.94891359h0.0061798z m562.8755951 0H740.51144917V580.68795268c0-70.35713196-24.96025086-106.66969299-74.89929199-106.66969299-40.84854126 0-65.81497192 20.42427063-77.1672821 59.00482177V853.05069987H434.11031086s2.27416992-460.74806213 1e-8-512.94273377h129.57824707l-0.21011352 102.13371278h2.26799011c31.77658081-52.20085144 81.71562195-86.24542237 152.06657409-86.24542237 52.20085144 0 95.32974243 13.62030029 127.10014344 52.20703125 31.77658081 36.31256104 49.93286133 86.24542237 49.93286132 154.3283844v290.52520753H894.8521932zM334.24458821 213.00782268c0 43.12271118-36.31874084 77.16728211-79.43527222 77.1672821-43.12889099 0-79.43527222-34.04457092-79.43527221-77.1672821s36.30638123-77.16728211 79.43527221-77.16728211c43.11653138 0 79.43527222 34.04457092 79.43527223 77.16728211z" fill="#2c2c2c" p-id="23291"></path></svg>