<?xml version="1.0" standalone="no"?><!DOCTYPE svg PUBLIC "-//W3C//DTD SVG 1.1//EN" "http://www.w3.org/Graphics/SVG/1.1/DTD/svg11.dtd"><svg t="1725432798141" class="icon" viewBox="0 0 1024 1024" version="1.1" xmlns="http://www.w3.org/2000/svg" p-id="1628" xmlns:xlink="http://www.w3.org/1999/xlink" width="200" height="200"><path d="M222.3 1022.1H3.7V293.4h218.6v728.7z m801.7 0H805.3V632.8c0-101.4-36.1-152-107.8-152-56.8 0-92.7 28.3-110.8 84.9V1022H368.1s2.9-655.9 0-728.8h172.6L554 439.1h4.5c44.8-72.9 116.5-122.3 214.7-122.3 74.7 0 135.1 20.8 181.3 73 46.4 52.2 69.5 122.4 69.5 220.8v411.5zM226 111.2c0 60.4-50.6 109.3-113 109.3S0 171.6 0 111.2 50.6 1.9 113 1.9c62.3 0 113 48.9 113 109.3z m0 0" p-id="1629"></path></svg>