<?xml version="1.0" standalone="no"?><!DOCTYPE svg PUBLIC "-//W3C//DTD SVG 1.1//EN" "http://www.w3.org/Graphics/SVG/1.1/DTD/svg11.dtd"><svg t="1725436157786" class="icon" viewBox="0 0 1024 1024" version="1.1" xmlns="http://www.w3.org/2000/svg" p-id="40856" xmlns:xlink="http://www.w3.org/1999/xlink" width="200" height="200"><path d="M512 96c-229.376 0-416 186.624-416 416s186.624 416 416 416 416-186.624 416-416S741.376 96 512 96z m0 64A351.530667 351.530667 0 0 1 864 512 351.530667 351.530667 0 0 1 512 864 351.530667 351.530667 0 0 1 160 512 351.530667 351.530667 0 0 1 512 160zM352 256a32 32 0 1 0 0 64 32 32 0 0 0 0-64zM320 352v352H384V352H320z m128 0v352h144A176.512 176.512 0 0 0 768 528a176.512 176.512 0 0 0-176-176H448z m64 64h80a111.530667 111.530667 0 0 1 112 112A111.530667 111.530667 0 0 1 592 640H512V416z" fill="#2c2c2c" p-id="40857"></path></svg>