<?xml version="1.0" standalone="no"?><!DOCTYPE svg PUBLIC "-//W3C//DTD SVG 1.1//EN" "http://www.w3.org/Graphics/SVG/1.1/DTD/svg11.dtd"><svg t="1725434995480" class="icon" viewBox="0 0 1024 1024" version="1.1" xmlns="http://www.w3.org/2000/svg" p-id="39816" xmlns:xlink="http://www.w3.org/1999/xlink" width="200" height="200"><path d="M255.992 639.980001c0-35.358895 28.639105-63.998 63.998-63.998s63.998 28.639105 63.998 63.998c0 35.358895-28.639105 63.998-63.998 63.998s-63.998-28.639105-63.998-63.998zM639.980001 639.980001c0-35.358895 28.639105-63.998 63.998-63.998s63.998 28.639105 63.998 63.998c0 35.358895-28.639105 63.998-63.998 63.998s-63.998-28.639105-63.998-63.998zM643.083904 776.743727c16.479485-12.991594 40.382738-10.143683 53.374332 6.335802s10.143683 40.382738-6.335802 53.374332c-45.886566 36.15887-115.804381 59.51814-178.138433 59.51814s-132.251867-23.35927-178.138433-59.51814c-16.479485-12.991594-19.327396-36.894847-6.335802-53.374332s36.894847-19.327396 53.374332-6.335802c26.431174 20.831349 78.71754 43.230649 131.099903 43.230649s104.668729-22.3993 131.099903-43.230649zM1023.968001 511.984c0-70.685791-57.310209-127.996-127.996-127.996-48.126496 0-89.981188 26.55917-111.836505 65.821943-65.789944-35.998875-145.947439-59.230149-233.27271-64.605981l76.381613-171.51464 146.203431 42.206681c13.151589 37.342833 48.702478 64.125996 90.55717 64.125996 53.022343 0 95.997-42.974657 95.997-95.997s-42.974657-95.997-95.997-95.997c-36.542858 0-68.349864 20.447361-84.541358 50.526421l-162.906909-47.03853c-18.23943-5.247836-37.534827 3.711884-45.246586 21.055342l-103.772757 233.016718c-85.149339 5.983813-163.258898 29.023093-227.640886 64.221993-21.855317-39.262773-63.774007-65.789944-111.868504-65.789944-70.685791 0-127.996 57.310209-127.996 127.996 0 52.318365 31.391019 97.244961 76.381613 117.084341-8.063748 24.031249-12.383613 49.118465-12.383613 74.909659 0 176.730477 200.569732 319.99 447.986 319.99s447.986-143.259523 447.986-319.99c0-25.791194-4.287866-50.846411-12.383613-74.87766 44.958595-19.83938 76.381613-64.797975 76.381613-117.11634zM863.973001 187.994125c19.871379 0 35.998875 16.127496 35.998875 35.998875s-16.127496 35.998875-35.998875 35.998875-35.998875-16.127496-35.998875-35.998875 16.127496-35.998875 35.998875-35.998875zM63.998 511.984c0-35.294897 28.703103-63.998 63.998-63.998 25.503203 0 47.582513 15.007531 57.854192 36.638855-33.438955 25.375207-61.150089 54.622293-81.661448 86.749289-23.519265-9.471704-40.190744-32.510984-40.190744-59.390144zM511.984 947.970376c-205.43358 0-371.988375-109.244586-371.988375-243.992375s166.554795-243.992375 371.988375-243.992375c205.43358 0 371.988375 109.244586 371.988375 243.992375s-166.554795 243.992375-371.988375 243.992375zM919.779257 571.374145c-20.511359-32.094997-48.222493-61.374082-81.661448-86.749289 10.271679-21.631324 32.350989-36.638855 57.854192-36.638855 35.294897 0 63.998 28.703103 63.998 63.998 0 26.87916-16.63948 49.91844-40.190744 59.390144z" fill="#2c2c2c" p-id="39817"></path></svg>