<?xml version="1.0" standalone="no"?><!DOCTYPE svg PUBLIC "-//W3C//DTD SVG 1.1//EN" "http://www.w3.org/Graphics/SVG/1.1/DTD/svg11.dtd"><svg t="1725434606157" class="icon" viewBox="0 0 1024 1024" version="1.1" xmlns="http://www.w3.org/2000/svg" p-id="25395" xmlns:xlink="http://www.w3.org/1999/xlink" width="200" height="200"><path d="M835.654229 0.047784c-34.899705 0-64.338331 8.106288-88.443872 24.105542-24.020212 16.084583-41.384735 39.934136-51.752252 71.676655a136.228309 136.228309 0 0 0-4.778443 18.644464 356.890012 356.890012 0 0 0-3.327845 22.612278 383.982081 383.982081 0 0 0-2.133234 31.017219c-0.426647 12.031439-0.554641 26.494764-0.554641 43.34731a1327.8527 1327.767371 90 0 0 0.597306 43.389975 383.982081 383.982081 0 0 0 2.133234 31.01722 339.013513 339.013513 0 0 0 3.28518 22.612278h-0.213324a142.244029 142.244029 0 0 0 4.821109 18.687128c10.452846 31.699854 27.732039 55.592072 51.794916 71.676655 24.105542 16.041918 53.586833 24.062877 88.529202 24.062877 34.131741 0 65.532942-9.087576 89.809142-25.7268 24.318865-16.639224 40.104795-39.080843 50.130994-70.396714 3.242515-10.026199 5.759731-23.806889 7.551648-39.678149a465.044965 465.044965 0 0 0 1.834581-51.496263v-34.985034c0-4.053144-2.00524-6.058384-5.973055-6.058384h-130.724566c-4.01048 0-5.973055 2.00524-5.973055 6.015719v40.78743c0 4.01048 1.962575 5.973055 5.973055 5.973054h71.079349c2.389222 0 3.583833 1.27994 3.583833 3.669163 0 15.359283 0 26.452099-1.535928 36.904944-1.621258 10.410181-4.266468 19.07111-6.271707 25.854793-4.607785 16.4259-14.847307 28.329345-27.220064 37.374256-12.372756 9.044911-31.486531 14.932636-52.349557 14.932637-23.252248 0-38.440873-6.399701-51.624257-15.060631-13.055391-8.660929-22.057637-19.369763-28.585333-39.038178a133.796423 133.796423 0 0 1-6.271707-32.510483 740.957422 740.914757 0 0 1-1.450599-27.988027c-0.426647-11.092816-0.597305-24.404194-0.597306-40.06213a1126.475431 1126.390102 90 0 1 0.597306-40.019466 675.040498 674.997833 90 0 1 1.493264-27.988027 136.100315 136.100315 0 0 1 6.314372-32.425154 80.636237 80.636237 0 0 1 31.657189-43.091322c14.676648-10.410181 25.300153-15.017966 48.509736-15.017966 21.673655 0 34.771711 4.095809 48.808389 12.927397 14.079343 8.831588 22.526949 20.99102 32.595812 39.464825 2.00524 4.01048 4.735779 5.034432 8.447606 2.986527l44.541921-18.345811c3.199851-2.047904 3.839821-4.906438 1.791917-8.49027a151.416934 151.416934 0 0 0-19.881739-31.657189 127.994027 127.994027 0 0 0-28.969315-25.897459 141.34807 141.34807 0 0 0-38.526202-17.492517A173.559901 173.559901 0 0 0 835.654229 0.047784zM350.599532 249.038832c-72.103302 0-129.529955 3.669162-183.330111 3.669162-48.893718 0-97.744772 0-128.29268-1.237276v35.454345l46.419167 8.532936c31.742519 6.143713 50.088329 20.820362 50.088329 96.592825v481.598859c0 75.815129-18.345811 90.449112-50.088329 96.550161l-46.419167 8.532935v35.49701c32.979794-1.237276 90.449112-3.669162 147.833101-3.669162 55.037432 0 125.903458 2.431887 156.451366 3.669162v-35.454345l-63.570367-8.532935c-32.979794-4.906438-50.088329-20.777697-50.088329-96.592826v-204.107808c29.353297 2.431887 55.037432 2.431887 94.118274 2.431886 74.577853 133.241782 145.486544 233.461105 185.804663 279.880272 36.691621 44.029945 92.880999 72.145967 163.78969 72.145967 20.777697 0 42.79267-3.669162 56.232042-9.812875v-31.742519c-43.987281 0-88.017226-30.547908-119.802409-64.764978-53.757491-58.706594-125.860793-152.824868-185.804663-259.14524 98.982048-23.252248 172.36529-116.133247 172.36529-209.05691 0-136.868279-106.320372-200.438646-245.663202-200.438646z m-21.972308 55.037431c102.65121 0 163.78969 53.757491 163.78969 151.544928 0 96.550161-66.002253 161.357803-174.797176 161.357803-41.555394 0-59.901205-1.27994-88.017226-3.669162v-306.759018c28.158686-2.517216 66.002253-2.517216 98.982047-2.517216z" p-id="25396" fill="#2c2c2c"></path></svg>