<?xml version="1.0" standalone="no"?><!DOCTYPE svg PUBLIC "-//W3C//DTD SVG 1.1//EN" "http://www.w3.org/Graphics/SVG/1.1/DTD/svg11.dtd"><svg t="1725434947275" class="icon" viewBox="0 0 1024 1024" version="1.1" xmlns="http://www.w3.org/2000/svg" p-id="37611" xmlns:xlink="http://www.w3.org/1999/xlink" width="200" height="200"><path d="M350.9248 853.333333c322.321067 0 499.3024-264.8064 499.3024-492.100266v-21.8112c34.816-24.8832 63.1808-56.046933 88.439467-90.350934-31.6416 15.598933-66.321067 21.8112-101.102934 27.989334 37.888-21.777067 63.146667-56.081067 75.844267-96.5632-34.781867 18.705067-72.704 34.304-110.626133 43.588266-66.3552-68.573867-176.981333-71.68-249.719467-6.178133-44.202667 43.554133-66.321067 105.813333-50.5856 165.034667-142.199467-6.212267-271.803733-71.68-360.2432-180.6336-47.377067 77.858133-22.1184 180.6336 53.76 230.5024-28.398933 0-53.76-9.3184-79.018667-21.8112v3.106133c0 80.964267 60.040533 152.644267 142.199467 168.2432-25.258667 6.178133-53.76 9.284267-79.018667 3.072 22.1184 71.68 88.439467 118.3744 164.317867 121.480533-63.214933 46.6944-139.0592 74.752-218.077867 74.752-12.663467 0-28.398933 0-41.0624-3.072C161.28 828.416 256.1024 853.333333 350.9248 853.333333" p-id="37612" fill="#2c2c2c"></path></svg>