<?xml version="1.0" standalone="no"?><!DOCTYPE svg PUBLIC "-//W3C//DTD SVG 1.1//EN" "http://www.w3.org/Graphics/SVG/1.1/DTD/svg11.dtd"><svg t="1725434881355" class="icon" viewBox="0 0 2496 1024" version="1.1" xmlns="http://www.w3.org/2000/svg" p-id="34745" xmlns:xlink="http://www.w3.org/1999/xlink" width="487.5" height="200"><path d="M2366.874 190.874l-3.687-3.687c-33.382-31.949-69.017-21.709-94.617-5.53-22.324 14.132-35.84 38.913-35.84 65.332v73.113h76.595c67.174 0.205 103.629-80.486 57.549-129.228z" fill="#FF2742" p-id="34746"></path><path d="M2197.3 441.344c0-33.587-0.206-133.734-0.82-164.25-0.82-103.014-106.496-100.556-106.496-100.556h-114.893l-0.819-58.778h-144.18v58.778h-94.617v139.264h93.184v124.723h-140.288V587.57h144.384v316.007h142.95V585.523c70.452 0 134.759-1.024 198.861 0.41 31.95 0.614 49.152 21.094 50.176 52.429 1.23 37.478 0 145.817 0 145.817l-144.384-0.41 55.501 119.809h132.71s101.991 2.662 101.991-101.581V549.888c0.205-84.378-51.814-109.158-173.26-108.544z m-125.748-0.614h-95.232l-1.024-124.724h96.46V440.73zM136.397 684.85c27.853 49.152 55.705 98.1 86.016 151.552 113.664-159.539 108.544-516.505 108.544-516.505H179.2c12.288 190.873-42.598 359.219-42.803 364.953z m297.37-567.091v667.443h-96.052l91.341 121.242h87.45s61.235 0 59.801-89.293c1.024-218.726 1.229-480.87 1.434-699.597-47.719 0-95.847 0-143.975 0.205z m739.123 381.952c29.49-59.597 59.187-118.989 92.364-186.163-62.873 3.686-115.712 6.758-174.49 10.035 25.191-66.97 64.513-135.578 99.943-206.234h-144.179c-41.984 86.221-86.22 171.418-125.542 258.663-24.986 55.091-4.71 82.125 55.91 84.173 20.48 0.819 40.96 0.204 69.222 0.204-9.83 21.504-16.384 36.045-22.937 50.586-19.251 42.189-39.731 83.968-57.14 126.976-14.13 34.816-0.409 62.464 36.25 66.56 50.586 5.53 101.786 3.891 152.576 4.096 5.735 0 13.927-6.349 16.999-12.083 18.227-33.792 35.225-68.403 54.476-106.291-13.107-1.024-20.07-2.048-27.238-2.253-68.813-1.843-68.813-2.048-37.888-64.307 3.686-7.578 7.578-15.975 11.674-23.962z" fill="#FF2742" p-id="34747"></path><path d="M1536.614 768.205h149.71V906.65h-517.735c25.19-49.767 69.837-138.445 69.837-138.445h147.66V315.597h-91.955V174.08h333.62v139.264h-91.137v454.86zM680.346 318.464h142.13c-10.854 141.312 34.817 329.933 34.817 329.933s-41.37 92.774-71.475 179.814C716.8 768 679.322 586.957 680.346 318.464z m256 440.934h230.195c-25.805 50.381-46.08 91.341-68.199 131.482-4.096 7.373-16.384 14.336-24.985 14.54-67.175 1.025-134.144 0.615-211.354 0.615 29.287-57.958 53.248-105.062 74.343-146.637z" fill="#FF2742" p-id="34748"></path></svg>