<?xml version="1.0" standalone="no"?><!DOCTYPE svg PUBLIC "-//W3C//DTD SVG 1.1//EN" "http://www.w3.org/Graphics/SVG/1.1/DTD/svg11.dtd"><svg t="1725434875121" class="icon" viewBox="0 0 1024 1024" version="1.1" xmlns="http://www.w3.org/2000/svg" p-id="34598" xmlns:xlink="http://www.w3.org/1999/xlink" width="200" height="200"><path d="M227.295097 1.108133h568.301673C947.112628 1.108133 1022.891867 76.887372 1022.891867 228.44585v568.259053c0 151.558478-75.779239 227.295097-227.295097 227.295097H227.295097C75.779239 1024 0 948.306002 0 796.704903V228.44585C0 76.887372 75.779239 1.108133 227.295097 1.108133z" fill="#FF2741" p-id="34599"></path><path d="M777.653542 488.857072h26.083743c4.091567-38.912511 2.045784-40.915675-26.083743-36.355282v36.312661z m37.335553 109.406809h53.190377c0-16.36627 0.511446-31.198202 0-46.030134-0.511446-9.717473-7.160243-15.343378-18.412053-15.343378-23.526513-0.511446-47.053026 0-72.113877 0v101.266295h-54.724715v-101.266295h-54.724715v-47.053026h53.190377v-37.846999l-34.778323-1.534338V403.914426h34.778323c1.022892-5.625905 1.534338-10.228919 2.55723-15.343378h52.167485c1.022892 4.603013 1.534338 8.694581 2.55723 14.320486 26.083743 0 55.747607 0.511446 68.533755 22.503621 10.740365 18.412054 11.763256 41.427121 17.389162 63.930742 0.511446 0 5.114459 0 9.206027 0.511446 29.152418 2.55723 47.564472 18.412054 49.098809 43.472904 1.022892 21.992175 1.022892 43.472904 0 65.46508-1.534338 26.083743-23.015067 40.404229-56.770498 39.892783-32.221094-0.511446-49.610256-14.320486-51.144594-40.404229z m-199.97536-6.648797h52.167485v46.030134H476.923333l27.106635-46.54158h53.190377v-140.136186h-33.243986V404.468492h124.281362v46.030134h-33.243986v141.159078z m-184.631982-92.571714c-12.786148-1.022892-23.526513-1.022892-33.755432-3.068676-13.80904-2.045784-19.434945-10.740365-13.80904-21.480729 14.831932-27.61808 30.17531-54.724715 45.518688-82.342795 1.534338-2.55723 7.160243-4.091567 10.740365-4.091568 14.320486-0.511446 28.129526 0 45.007242 0l-37.335553 66.999417 3.580122 2.55723c18.412054-12.786148 39.381337-4.091567 62.907849-7.671689-16.877716 29.663864-32.221094 56.770499-49.098809 85.922917 13.297594 1.022892 22.503621 1.022892 34.266877 2.045784-6.648797 12.274702-13.297594 23.526513-20.457837 34.778323-1.022892 2.045784-5.625905 3.580122-8.183135 3.580122-16.877716 0-33.755432 1.022892-50.633147-0.511446-18.412054-1.534338-24.549405-10.740365-17.389162-25.572297 8.694581-16.877716 18.412054-33.243986 28.640972-51.144593zM203.811205 388.571048h54.213268a29.919587 29.919587 0 0 1 1.022892 6.648797v199.97536c0 29.663864-19.434945 45.007242-51.144593 42.961459-23.015067-1.534338-34.778323-12.274702-39.892783-38.358445 6.137351 0 11.763256-0.511446 17.389162-0.511446h17.900608c0.511446 0 0.511446-210.715725 0.511446-210.715725z m-91.548823 62.90785h56.259053c-11.251811 55.747607 1.534338 114.052443-42.450012 166.219928a2032.059935 2032.059935 0 0 1-29.152419-48.587363c-1.022892-1.534338-1.022892-3.580122-1.022891-5.625906 5.625905-36.824107 10.740365-73.648214 16.366269-112.006659z m221.967536 165.708482c-41.427121-51.144593-30.17531-109.44943-39.892783-165.708482h55.236161l7.671689 82.854241c0 1.534338-0.511446 3.068676 0 4.603014 13.80904 29.663864-7.671689 51.656039-23.015067 78.251227z m28.129526 21.48073c11.251811-18.412054 18.9235-32.221094 27.61808-45.518689 1.022892-2.045784 5.114459-4.091567 7.671689-4.091567 12.786148 0.511446 25.572297 2.045784 38.358445 2.55723 12.786148 0.511446 25.572297 0 40.404229 0-8.694581 15.343378-16.877716 28.640972-25.060851 42.450012-1.534338 2.045784-5.114459 4.603013-7.671689 4.603014H362.359444z m506.331474-188.72355c0-9.206027-1.022892-17.900608 0-26.595188 1.534338-12.274702 14.320486-20.969283 28.129527-19.946392 13.297594 1.022892 24.037959 10.228919 25.572296 21.992175 1.022892 11.763256-8.694581 23.526513-23.015067 24.549405-9.717473 0.511446-19.946391 0-30.686756 0z" fill="#FFFFFF" p-id="34600"></path></svg>