<?xml version="1.0" standalone="no"?><!DOCTYPE svg PUBLIC "-//W3C//DTD SVG 1.1//EN" "http://www.w3.org/Graphics/SVG/1.1/DTD/svg11.dtd"><svg t="1725434860550" class="icon" viewBox="0 0 1024 1024" version="1.1" xmlns="http://www.w3.org/2000/svg" p-id="33540" xmlns:xlink="http://www.w3.org/1999/xlink" width="200" height="200"><path d="M343.66439 1.098927c-83.518439 0.299707-153.150439 0.899122-154.84878 1.298732-1.598439 0.39961-7.692488 1.698341-13.48683 2.797268-24.376195 4.695415-54.746537 17.383024-76.025756 31.669073-14.985366 9.990244-24.97561 18.382049-36.864 30.670049C30.170537 101.001366 10.289951 141.062244 2.797268 187.816585 1.098927 198.805854 0.999024 213.291707 0.999024 512c0 297.209756 0.099902 313.194146 1.798244 323.683902C9.390829 875.844683 24.476098 910.510829 48.452683 940.481561c33.067707 41.459512 78.62322 68.932683 131.771317 79.222634 11.688585 2.197854 16.084293 2.497561 61.539902 3.396683 67.633951 1.398634 575.338146 0.499512 586.92683-0.999024 44.556488-5.894244 83.118829-22.478049 115.886829-49.851317 35.065756-29.271415 61.04039-70.531122 71.929756-113.988683 6.993171-27.672976 6.393756 1.598439 6.793366-337.770147 0.299707-318.788683 0.299707-320.686829-3.896195-342.365658-9.390829-48.552585-36.764098-94.907317-74.826927-126.676293-32.268488-26.873756-74.727024-45.056-115.387317-49.351805-12.188098-1.298732-267.139122-1.798244-485.525854-0.999024zM816.702439 73.428293c11.88839 1.698341 25.475122 5.194927 34.965854 9.091122 50.650537 20.380098 85.816195 62.23922 97.50478 116.286439 1.798244 8.192 1.898146 20.380098 1.898147 313.194146v304.702439l-2.297757 10.389854c-15.185171 67.633951-68.932683 116.086634-137.565658 123.978927-12.387902 1.398634-586.027707 1.398634-598.41561 0-70.631024-8.092098-126.676293-60.540878-138.364878-129.473561-1.998049-11.788488-1.998049-15.085268-1.698341-314.093269l0.299707-302.204878 2.197854-8.991219c3.69639-14.885463 7.093073-24.376195 13.287024-36.963903 14.685659-29.770927 38.862049-54.446829 67.733854-69.23239 12.68761-6.493659 21.578927-9.990244 33.167609-13.187122 18.382049-4.995122 6.293854-4.795317 321.585952-4.895219 256.649366-0.099902 296.610341 0.099902 305.701463 1.398634z" p-id="33541" fill="#2c2c2c"></path><path d="M211.293659 489.022439V609.404878h-35.065757l0.599415 5.694439c0.999024 9.390829 4.195902 18.481951 8.391805 24.276293 4.295805 6.094049 7.093073 8.391805 15.085268 12.587707 5.394732 2.897171 5.694439 2.897171 22.977561 2.897171 16.583805 0 17.782634-0.099902 22.478049-2.497561 6.893268-3.396683 13.08722-9.890341 16.583805-17.383025 5.994146-12.887415 5.894244-8.491707 5.894244-143.260097V368.64h-56.94439v120.382439zM412.497171 416.093659C390.119024 461.549268 386.122927 470.940098 386.122927 478.232976c0 5.095024 2.497561 9.990244 6.193951 12.288 2.997073 1.798244 4.995122 1.998049 24.076488 1.998048 11.388878 0 20.679805 0.199805 20.679805 0.39961s-6.793366 14.086244-14.985366 30.769951c-11.48878 23.077463-15.384976 31.96878-16.483903 37.463415-2.597463 12.288 0.299707 18.781659 9.39083 21.27922 2.497561 0.599415 15.58478 0.899122 35.165658 0.799219l31.169561-0.299707 12.288-21.978537 12.188098-21.978536-16.284098-0.299708c-24.376195-0.39961-24.775805 4.995122 3.296781-50.151024 12.68761-25.175415 23.177366-45.955122 23.177366-46.354732 0-0.299707-12.088195-0.599415-26.773854-0.599415h-26.773854l-1.698341 3.496586c-0.899122 1.898146-2.397659 3.496585-3.196878 3.496585-2.897171 0-5.494634-1.998049-5.494634-4.195902 0-1.198829 8.391805-18.282146 18.781658-38.162732 10.289951-19.780683 18.881561-36.364488 18.981464-36.764097 0.199805-0.39961-11.88839-0.79922-26.773854-0.79922h-27.173464l-23.37717 47.453659zM719.797073 377.131707v8.491708h-33.966829v54.946341h33.966829v41.959024h-53.947317v55.945366h53.947317v116.885854h54.946342V538.374244l38.862048 0.299707 38.862049 0.299708 2.697366 2.497561c5.394732 5.095024 5.494634 5.594537 5.494634 37.463414V608.405854h-50.950244v4.695414c0.099902 10.289951 7.292878 24.376195 16.284098 31.669073 10.789463 8.691512 19.480976 10.989268 40.16078 10.389854 12.587707-0.299707 15.884488-0.79922 20.679805-2.697366 13.187122-5.194927 23.676878-16.384 27.772878-29.770927 1.898146-6.094049 1.998049-9.290927 1.998049-49.351804 0-27.173463-0.39961-44.65639-1.098927-48.053074-1.898146-9.191024-7.492683-19.381073-14.186146-26.174439-9.890341-9.790439-21.578927-14.985366-36.764098-16.184195l-7.892292-0.699317v-21.578927c0-23.976585-0.899122-29.770927-6.094049-40.460487-6.193951-12.787512-15.484878-21.978537-28.672-28.572098-8.99122-4.395707-17.482927-5.994146-33.367415-5.994146H774.743415v-16.983415h-54.946342v8.491707z m78.62322 66.634927c2.197854 2.097951 2.297756 2.597463 2.297756 20.48V482.52878h-25.974634v-40.96h10.689561c9.590634 0 10.889366 0.199805 12.987317 2.197854z" p-id="33542" fill="#2c2c2c"></path><path d="M523.988293 414.09561V442.567805h34.965853v158.844878h-51.949268l-12.987317 25.974634c-7.093073 14.286049-12.987317 26.374244-12.987317 26.973659 0 0.699317 31.169561 0.999024 92.909268 0.999024h92.909268v-53.947317h-52.948292V442.567805h34.965853v-56.94439H523.988293v28.472195zM880.64 386.522537c-4.89522 1.498537-8.691512 3.996098-12.387902 8.092097-6.193951 6.893268-6.893268 9.490732-7.392781 28.172488l-0.39961 16.78361h17.383025c16.683707 0 17.582829-0.099902 22.577951-2.597464 10.289951-5.095024 16.084293-15.884488 14.785561-27.073561-1.198829-9.890341-5.994146-16.78361-14.685659-21.179317-6.393756-3.196878-13.886439-3.996098-19.880585-2.197853zM120.881951 456.254439c1.398634 29.970732-2.897171 72.029659-10.589658 102.899512l-3.096976 12.188098 14.685659 26.773853c8.092098 14.685659 15.085268 27.173463 15.484878 27.573074 1.298732 1.398634 6.593561-1.998049 10.389853-6.593561 10.190049-12.387902 18.681756-40.660293 23.477073-77.724098 3.69639-28.472195 6.094049-61.939512 6.094049-86.115902V441.56878h-57.044292l0.599414 14.685659zM303.203902 457.752976c0 8.99122 0.499512 23.676878 0.999025 32.768 3.796293 61.240195 12.387902 104.398049 24.875707 123.579317 3.69639 5.794341 10.389854 12.288 12.68761 12.288 0.599415 0 7.892293-12.387902 16.284097-27.473171L373.13561 571.441951l-2.397659-9.790439c-7.592585-29.970732-10.889366-57.943415-10.989268-93.308878l-0.099903-26.773854H303.203902v16.184196zM383.925073 622.592l-13.686634 26.274341 2.097951 2.297757c3.796293 3.996098 7.492683 4.295805 45.056 3.996097l35.765073-0.299707 14.086244-26.374244c7.692488-14.485854 14.186146-26.973659 14.485854-27.772878 0.39961-1.098927-6.493659-1.298732-38.862049-1.298732-33.067707 0-39.661268-0.199805-41.35961-1.498536-0.999024-0.79922-2.397659-1.498537-2.89717-1.498537-0.599415 0-7.192976 11.788488-14.685659 26.174439z" p-id="33543" fill="#2c2c2c"></path></svg>